# xmcd
#
# Track frame offsets:
#	225
#	10713
#	23480
#	39747
#	53683
#	66191
#	78540
#	100474
#	112628
#	128307
#	141423
#	153754
#	166504
#	176208
#	188977
#	204575
#	216819
#	227870
#	238857
#	251419
#
# Disc length: 3605 seconds
#
# Revision: 0
# Processed by: cddbd v1.5.2PL0 Copyright (c) Steve Scherf et al.
# Submitted via: dBpowerAMP V4.0
#
DISCID=030e1214
DTITLE=Bill Anderson - 20 Greatest Hits
DYEAR=2000
DGENRE=Country
TTITLE0=I Get The Fever
TTITLE1=Still
TTITLE2=The Corner of My Life
TTITLE3=Five Little Fingers
TTITLE4=For Loving You (with Jan Howard)
TTITLE5=If You Can Live With It
TTITLE6=Double S
TTITLE7=Liars one, Believers Zero
TTITLE8=Mama Sang A Song
TTITLE9=Sometimes (with Mary Lou Turner)
TTITLE10=My Life
TTITLE11=8 X 10
TTITLE12=Don't She Look Good
TTITLE13=Po' Folks
TTITLE14=I Can't Wait Any Longer
TTITLE15=World of Make Believe
TTITLE16=Quits
TTITLE17=Wild Weekend
TTITLE18=I Love You Drops
TTITLE19=Golden Guitar
EXTD=
EXTT0=
EXTT1=
EXTT2=
EXTT3=
EXTT4=
EXTT5=
EXTT6=
EXTT7=
EXTT8=
EXTT9=
EXTT10=
EXTT11=
EXTT12=
EXTT13=
EXTT14=
EXTT15=
EXTT16=
EXTT17=
EXTT18=
EXTT19=
PLAYORDER=
